<?xml version="1.0" standalone="no"?>
<!DOCTYPE svg PUBLIC "-//W3C//DTD SVG 20010904//EN"
 "http://www.w3.org/TR/2001/REC-SVG-20010904/DTD/svg10.dtd">
<svg version="1.0" xmlns="http://www.w3.org/2000/svg"
 width="725.000000pt" height="258.000000pt" viewBox="0 0 725.000000 258.000000"
 preserveAspectRatio="xMidYMid meet">

<g transform="translate(0.000000,258.000000) scale(0.100000,-0.100000)"
fill="#000000" stroke="none">
<path d="M395 2527 c-160 -41 -248 -138 -271 -299 l-6 -48 -44 0 -44 0 0 -150
0 -150 45 0 45 0 0 -275 0 -275 160 0 160 0 0 275 0 275 80 0 80 0 0 -275 0
-275 160 0 160 0 0 425 0 425 -240 0 c-230 0 -240 1 -240 19 0 11 13 30 30 44
46 39 128 45 293 21 l37 -6 0 130 c0 126 -1 130 -22 137 -44 14 -331 15 -383
2z"/>
<path d="M4092 2520 c-282 -40 -542 -174 -732 -377 -69 -74 -130 -153 -130
-169 0 -19 120 -161 188 -224 96 -89 186 -149 314 -210 496 -237 1099 -104
1455 320 91 108 92 111 57 161 -16 24 -62 78 -103 121 -173 184 -398 310 -651
363 -89 19 -310 27 -398 15z m344 -95 c257 -42 511 -184 675 -379 l58 -69 -32
-41 c-222 -281 -582 -442 -947 -423 -294 16 -545 131 -758 348 -98 99 -102
109 -67 156 79 106 248 240 390 311 199 98 453 134 681 97z"/>
<path d="M4328 2319 c-5 -109 -23 -154 -95 -230 -104 -111 -255 -138 -410 -73
-20 9 -16 -94 6 -165 39 -125 120 -218 239 -274 63 -30 73 -32 183 -32 113 0
117 1 190 37 93 46 168 122 212 215 30 64 32 74 32 183 -1 108 -3 119 -32 183
-54 114 -182 222 -289 243 l-32 6 -4 -93z"/>
<path d="M1347 2189 c-268 -63 -413 -378 -291 -634 127 -270 515 -335 728
-123 92 92 95 84 -57 171 l-132 76 -20 -24 c-28 -33 -57 -45 -107 -45 -82 0
-138 57 -138 142 0 83 61 148 138 148 39 0 66 -13 103 -47 l26 -24 126 73 c70
40 127 77 127 84 0 32 -101 128 -175 167 -86 44 -228 60 -328 36z"/>
<path d="M2153 2186 c-203 -66 -317 -315 -258 -565 40 -168 158 -285 314 -310
97 -16 219 14 260 63 20 24 31 19 31 -14 l0 -30 155 0 155 0 0 425 0 425 -155
0 -155 0 0 -35 c0 -40 -9 -44 -36 -14 -10 12 -37 30 -59 42 -51 26 -190 33
-252 13z m263 -292 c102 -49 106 -219 5 -278 -69 -40 -165 -15 -205 53 -27 46
-26 128 3 174 38 62 125 85 197 51z"/>
<path d="M6800 1381 c0 -154 19 -338 55 -548 l6 -33 134 0 c101 0 135 3 135
13 0 6 14 102 30 212 23 158 30 234 30 363 l0 162 -195 0 -195 0 0 -169z"/>
<path d="M5383 1401 l-153 -45 0 -73 0 -73 -60 0 -60 0 0 -150 0 -150 59 0 59
0 4 -172 c3 -154 6 -179 26 -223 52 -114 123 -155 284 -163 58 -2 123 -1 142
2 l36 7 0 139 0 140 -64 0 c-48 0 -70 5 -87 19 -22 18 -24 27 -27 135 l-4 116
91 0 91 0 0 150 0 150 -90 0 -89 0 -3 118 -3 118 -152 -45z"/>
<path d="M1105 1229 c-102 -12 -169 -44 -244 -115 -51 -48 -76 -81 -102 -136
-33 -70 -34 -77 -34 -194 0 -119 0 -121 38 -196 81 -164 228 -248 437 -248
137 0 246 35 324 102 l37 33 -102 86 -103 86 -46 -24 c-39 -21 -56 -24 -121
-21 -65 3 -81 7 -112 31 -20 15 -37 32 -37 38 0 5 110 9 280 9 l279 0 7 36 c4
20 4 74 1 120 -6 102 -43 189 -112 263 -97 104 -231 149 -390 130z m145 -264
c31 -16 60 -51 60 -72 0 -10 -32 -13 -135 -13 -139 0 -145 2 -124 41 28 53
135 77 199 44z"/>
<path d="M1955 1228 c-174 -19 -285 -129 -285 -280 0 -80 18 -129 63 -176 43
-45 66 -56 194 -93 132 -38 158 -52 143 -79 -8 -16 -21 -20 -59 -20 -49 0 -83
20 -108 64 -8 15 -21 12 -134 -39 -68 -31 -128 -60 -132 -65 -24 -23 72 -127
147 -159 132 -57 329 -55 461 4 103 46 155 132 155 254 0 82 -23 135 -79 183
-45 38 -157 80 -246 93 -83 11 -122 50 -74 75 30 17 75 3 104 -32 l25 -30 120
43 c67 23 123 46 126 50 8 13 -32 82 -68 116 -74 71 -213 107 -353 91z"/>
<path d="M2985 1230 c-59 -8 -108 -31 -147 -68 l-28 -26 0 37 0 37 -155 0
-155 0 0 -595 0 -595 155 0 155 0 0 205 0 205 44 -33 c58 -45 118 -61 215 -55
174 10 301 129 347 325 28 118 5 288 -52 380 -56 91 -161 167 -246 178 -24 4
-52 8 -63 9 -11 2 -43 0 -70 -4z m69 -313 c50 -33 73 -145 42 -205 -28 -53
-62 -75 -124 -80 -48 -3 -63 0 -92 20 -48 32 -75 100 -66 162 9 60 67 123 118
128 43 4 93 -6 122 -25z"/>
<path d="M3880 1228 c-117 -12 -192 -50 -273 -137 -85 -91 -124 -207 -114
-341 17 -238 186 -394 439 -408 156 -8 275 25 362 100 l38 33 -103 86 -103 87
-44 -24 c-85 -45 -219 -27 -260 34 l-14 22 280 0 c246 0 281 2 286 16 12 32 6
181 -10 235 -23 78 -57 131 -124 193 -92 85 -213 120 -360 104z m171 -286 c52
-58 45 -62 -106 -62 -139 0 -145 2 -124 41 21 41 69 60 138 56 57 -3 67 -7 92
-35z"/>
<path d="M6177 1228 c-193 -19 -362 -183 -386 -375 -23 -183 51 -346 201 -444
83 -53 165 -73 282 -67 82 4 105 10 168 40 307 147 348 563 76 764 -94 69
-206 96 -341 82z m171 -342 c28 -32 32 -42 32 -93 0 -97 -51 -153 -141 -153
-107 0 -171 114 -123 217 42 87 164 103 232 29z"/>
<path d="M4969 1216 c-69 -18 -128 -66 -162 -131 -16 -30 -16 -29 -17 48 l0
77 -155 0 -155 0 0 -425 0 -425 154 0 154 0 4 193 c3 178 5 195 26 232 37 66
110 105 194 105 l38 0 0 170 c0 191 6 180 -81 156z"/>
<path d="M6897 699 c-20 -11 -49 -38 -65 -61 -23 -35 -27 -52 -27 -108 0 -56
4 -73 28 -108 34 -52 91 -82 156 -82 61 0 97 13 134 48 43 41 60 81 60 142 0
81 -46 153 -116 179 -45 17 -128 12 -170 -10z"/>
</g>
</svg>
